<?xml version="1.0" encoding="UTF-8" standalone="no"?>
<svg
   width="626"
   height="529"
   overflow="hidden"
   version="1.1"
   id="svg12"
   sodipodi:docname="KOMU_2023.svg"
   inkscape:version="1.4 (86a8ad7, 2024-10-11)"
   xmlns:inkscape="http://www.inkscape.org/namespaces/inkscape"
   xmlns:sodipodi="http://sodipodi.sourceforge.net/DTD/sodipodi-0.dtd"
   xmlns="http://www.w3.org/2000/svg"
   xmlns:svg="http://www.w3.org/2000/svg">
  <sodipodi:namedview
     id="namedview12"
     pagecolor="#ffffff"
     bordercolor="#111111"
     borderopacity="1"
     inkscape:showpageshadow="0"
     inkscape:pageopacity="0"
     inkscape:pagecheckerboard="1"
     inkscape:deskcolor="#d1d1d1"
     inkscape:zoom="0.8563327"
     inkscape:cx="250.48675"
     inkscape:cy="264.5"
     inkscape:window-width="1366"
     inkscape:window-height="697"
     inkscape:window-x="-8"
     inkscape:window-y="-8"
     inkscape:window-maximized="1"
     inkscape:current-layer="svg12" />
  <defs
     id="defs1" />
  <rect
     x="1"
     y="0"
     width="624"
     height="422"
     fill="#ffffff"
     id="rect2" />
  <path
     d="m 268.244,205.99 c 24.133,1.023 40.794,9.548 54.442,24.412 3.094,4.2 7.088,8.701 9.284,13.502 l 1.117,2.578 -0.571,-0.328 c -14.398,-6.997 -35.156,-8.258 -53.567,7.521 -27.166,27.248 -12.636,64.096 2.299,72.936 -16.459,-1.526 -42.472,9.603 -48.227,38.711 -0.765,4.518 -1.004,8.8 -0.785,12.835 l 1.547,8.927 -7.113,2.553 c -50.403,15.494 -87.97,-11.399 -99.675,-34.248 -12.485,-24.372 -32.83,-59.264 35.01,-115.663 25.385,-17.294 36.591,-21.513 53.767,-27.225 20.822,-5.039 37.992,-7.125 52.472,-6.511 z M 168.811,26.431 c 27.557,-0.706 55.252,11.987 63.432,37.283 26.36,55.115 -35.146,90.099 -66.581,103.068 -31.436,12.969 -98.093,35.949 -122.029,-25.255 -23.936,-61.204 64.688,-96.926 98.395,-109.894 8.427,-3.243 17.597,-4.967 26.783,-5.202 z M 316.593,0 h 308.384 v 422 h -41.543 l 6.11,-0.67 c 24.038,-5.483 36.998,-28.799 35.309,-50.945 -3.042,-33.034 -33.253,-45.708 -49.732,-42.993 13.768,-7.685 32.157,-43.789 4.196,-72.173 -22.195,-21.123 -50.49,-13.437 -60.439,-4.224 5.364,-17.646 -3.43,-54.122 -39.43,-59.892 -2.488,-0.278 -4.884,-0.427 -7.167,-0.427 -13.741,0.002 -23.7,5.027 -30.708,11.288 l -7.109,8.325 -2.318,-6.895 c -2.067,-5.079 -4.569,-9.984 -7.974,-14.924 -6.81,-9.88 -16.26,-20.594 -27.517,-28.387 -11.258,-7.792 -26.546,-14.611 -40.027,-18.368 -13.481,-3.757 -25.016,-4.035 -40.859,-4.175 -3.961,-0.034 -8.296,0.087 -12.828,0.307 l -12.305,0.785 3.035,-2.903 C 319.885,107.583 337.994,74.836 332.58,52.046 330.732,35.074 326.686,20.337 320.721,7.737 Z M 1,0 H 50.002 L 35.737,8.069 c -7.704,4.712 -15.028,9.557 -21.96,14.51 L 1,32.454 v 199.605 l 2.99,1.255 c 18.229,6.468 35.227,9.019 51.162,8.893 l 9.814,-0.612 -2.78,2.682 c -12.739,12.591 -18.348,20.414 -25.766,31.859 -8.478,13.081 -15.565,25.604 -19.179,40.911 -3.613,15.307 -8.478,31.17 -2.502,50.93 4.482,14.82 14.984,37.232 26.58,53.676 L 41.585,422 H 1 Z"
     fill="#af2120"
     fill-rule="evenodd"
     id="path2" />
  <rect
     x="1"
     y="427"
     width="624"
     height="101"
     fill="#a4a4a4"
     id="rect8" />
  <path
     d="m 50,443 h 11.967 c -0.167,10.792 0.166,22.089 0,32.881 l 34.414,-32.122 h 18.275 L 85.125,469.394 117,515 102.569,514.747 75.9,478.656 l -2.97,2.594 -1.096,1.07 -1.013,0.772 -8.672,7.575 -0.205,0.564 c 0,7.311 0.035,16.205 0.035,23.516 H 50 Z"
     fill="#ffffff"
     fill-rule="evenodd"
     id="path9" />
  <path
     d="m 224.125,454.427 c -13.348,0 -24.169,11.318 -24.169,25.28 0,13.961 10.821,25.279 24.169,25.279 13.347,0 24.168,-11.318 24.168,-25.279 0,-13.962 -10.821,-25.28 -24.168,-25.28 z M 224,442 c 20.435,0 37,16.789 37,37.5 0,20.711 -16.565,37.5 -37,37.5 -20.435,0 -37,-16.789 -37,-37.5 0,-20.711 16.565,-37.5 37,-37.5 z"
     fill="#ffffff"
     fill-rule="evenodd"
     id="path10" />
  <path
     d="m 348,444 h 11.646 L 384.867,483.328 410.354,444 H 422 v 70.733 c -5.337,0 -6.958,-0.267 -12.295,-0.267 v -48.037 l -19.158,27.618 c -0.052,1.513 -5.413,7.566 -5.465,9.079 l -24.787,-36.39 V 515 l -12.03,-0.267 C 348.177,491.066 348.089,467.667 348,444 Z"
     fill="#ffffff"
     fill-rule="evenodd"
     id="path11" />
  <path
     d="m 513,444.267 h 12.237 c 0,13.612 0.063,35.009 0,46.711 -0.053,9.884 2.363,10.782 5.99,12.286 3.628,1.505 6.802,1.834 10.998,1.548 4.197,-0.285 11.174,-0.019 14.182,-3.262 3.008,-3.244 4.058,-6.59 3.867,-16.198 -0.195,-9.859 -0.265,-27.568 -0.265,-41.352 h 11.972 c 0,13.4 0.125,38.721 -0.265,48.745 -0.391,10.023 -0.697,8.338 -2.079,11.396 -1.382,3.058 -3.702,5.18 -6.212,6.953 -2.51,1.772 -4.796,2.865 -8.848,3.68 -4.052,0.815 -9.265,1.325 -15.464,1.21 -6.002,-0.112 -14.917,-1.346 -20.138,-6.708 C 513.754,503.913 513,495.37 513,484.714 Z"
     fill="#ffffff"
     fill-rule="evenodd"
     id="path12" />
  <g
     id="g8"
     transform="matrix(0.30704592,0,0,0.29381748,223.21475,190.4724)">
	<path
   class="st0"
   d="m 584.3,795.4 v 0 H 170.4 c -36.6,0 -79.5,-14.5 -107,-36.2 C 22.3,726.8 1.5,683.6 0,627.1 -0.6,603.5 4.8,578.2 14.9,557.8 25,537.3 37.6,515.3 69.6,490.5 91.5,473.6 116.8,462.8 143.7,458.7 126.8,440.8 114.5,420.2 107,397 95.4,361.2 94.9,304.1 128.3,251.3 c 12.1,-19 30.3,-36.8 50.2,-48.8 26,-15.7 56.4,-24 87.8,-24 27,0 53.7,6.3 77.2,17.9 -4,-23.4 -3,-47.5 3.1,-71.2 12.6,-49.3 44.7,-87.6 92.8,-110.7 l 0.9,-0.4 C 460.2,5.2 484.5,0 507.3,0 571.7,0 626.7,30.9 655.8,82 684.4,32.2 741,0 803.6,0 825,0 849.4,5.5 870.5,15.1 l 0.9,0.4 c 48.2,23.3 79.1,60.2 91.8,109.8 6.6,25.8 8.1,48.5 4.2,71 23.5,-11.6 50.1,-17.8 77,-17.8 31.4,0 61.8,8.3 87.8,24 19.8,12 38.1,29.7 50.2,48.8 33.4,52.8 32.9,109.9 21.3,145.7 -7.5,23.1 -19.7,43.7 -36.6,61.6 27.4,4 53.1,14.8 75.3,31.9 33.1,25.6 44.6,49 53.1,66.1 l 0.6,1.2 c 10.1,20.4 15.5,45.7 14.9,69.3 -1.5,56.4 -22.2,99.7 -63.4,132.1 -27.4,21.6 -70.4,36.2 -107,36.2 h -415 v 0 z"
   id="path1"
   style="fill:#ffffff" />

	<g
   id="g7">
		<path
   class="st1"
   d="M 921.4,136 C 913.5,105 894.5,74.6 852.7,54.4 838,47.7 819.6,43.2 803.6,43.2 c -51.4,0 -99.9,29 -117.4,75.3 -7,18.4 -9.9,36.9 -8.4,56.5 H 731 c 22.1,0 35.5,11.4 35.5,19.1 -55.9,21.8 -78.2,51.4 -75,74.7 L 741,620.6 915.6,218.5 c 11.8,-26.9 14.2,-49.5 5.8,-82.5 z"
   id="path2-7"
   style="fill:#6e55dc" />

		<path
   class="st2"
   d="M 625.5,118.5 C 607.2,72.4 561.9,43.2 507.2,43.2 c -15.9,0 -34.4,3.6 -49.1,10.3 -41.9,20.2 -61.8,51.5 -69.7,82.5 -8.4,32.9 -3,61.3 6.7,83.5 L 570.2,620.6 633,183.5 c 3.2,-21.8 0.6,-44.5 -7.5,-65 z"
   id="path3"
   style="fill:#ef1541" />

		<path
   class="st3"
   d="m 382.5,295.6 c -8.9,-20.2 -24.4,-38.3 -42.3,-51 -39.7,-28.1 -96.6,-30.8 -139.3,-5.1 -13.6,8.2 -27.4,21.3 -36,34.9 -23.9,37.8 -25.8,81.4 -16.7,109.3 9.6,29.7 28.5,50.5 52.1,66.3 l 354.4,237.5 z"
   id="path4"
   style="fill:#ff7112" />

		<path
   class="st4"
   d="m 239.7,522 c -11.8,-7.9 -37.1,-21.7 -70.5,-21.9 -28.1,-0.2 -53.1,9.2 -73.1,24.6 -25.8,20 -34.8,36.8 -42.4,52.2 -7.1,14.3 -10.9,32.9 -10.5,49 1.2,44.8 16.5,75.4 46.9,99.3 18.6,14.7 51.8,26.9 80.2,26.9 h 413 z"
   id="path5"
   style="fill:#fccc12" />

		<path
   class="st5"
   d="m 1145.8,274.4 c -8.6,-13.6 -22.3,-26.7 -36,-34.9 -42.7,-25.7 -99.6,-23.1 -139.3,5.1 -18,12.7 -33.5,30.8 -42.3,51 L 756,687.6 1110.4,450.1 c 23.6,-15.8 42.5,-36.6 52.1,-66.3 9.1,-28 7.2,-71.5 -16.7,-109.4 z"
   id="path6"
   style="fill:#069de0" />

		<path
   class="st6"
   d="m 1257.3,577 c -7.6,-15.4 -15.5,-32.3 -41.4,-52.2 -20,-15.4 -44.6,-24.6 -72.6,-24.6 -35.1,0 -60.7,14 -72.5,21.9 L 726.6,752.2 h 414 c 28.4,0 61.7,-12.2 80.2,-26.9 30.4,-24 45.8,-54.5 46.9,-99.3 0.5,-16.1 -3.3,-34.8 -10.4,-49 z"
   id="path7"
   style="fill:#05ac3f" />

	</g>

</g>
</svg>
